<svg xmlns="http://www.w3.org/2000/svg" viewBox="0 0 1428.58 442.73"><defs><style>.cls-1,.cls-2{fill:#fff;}.cls-2{stroke:#fff;stroke-miterlimit:10;}</style></defs><g id="Camada_2" data-name="Camada 2"><g id="Camada_1-2" data-name="Camada 1"><path class="cls-1" d="M180.22,28.59q27.71,27.55,27.71,72.81,0,45.84-27.63,73.47T107.12,202.5q-45.54,0-73.39-27.7T6,101.4Q6,56.15,33.73,28.59,62.16.6,107.12.6,152.38.6,180.22,28.59ZM63.17,58Q46.49,75.29,46.49,101.4q0,38.6,31.18,53.82A63.87,63.87,0,0,0,107.12,162q35.38,0,52.07-27.26,8.56-13.5,8.56-33.37,0-28.28-19-45.25-16.68-15.37-41.63-15.37Q80.29,40.78,63.17,58Z"/><path class="cls-1" d="M381.26,121.28q-21.33.59-21.33-19.88,0-19.58,20.46-20.16h42.5q17.25,0,21.75-9.28a25.23,25.23,0,0,0,1.45-4.71,29.94,29.94,0,0,0,.58-6.31q0-7.69-2.53-11.24t-10.23-6q-9.57-2.91-27.7-3.19H339.34q-13.92,0-13.93,14.79V181.91q.87,20.6-20,20.3-20.46,0-20.46-20.3V25.54Q284.94.31,307.57,0h98.06q52.06.29,71.65,27.7,9.57,13.92,9.57,33.22-1.74,36-29.15,42.5,27.12,6.24,28.57,38.43v40q0,20.31-20.6,20.3-20.16,0-19.58-20.3V141.58a15.59,15.59,0,0,0,0-6,25.47,25.47,0,0,0-1.45-4.71q-4.49-9.57-21.75-9.57Z"/><path class="cls-1" d="M563.87,20.47Q563.87.88,584.32.31q20.89-.3,20,20.16V181.91q.87,20.6-20,20.3-20.45,0-20.45-20.3Z"/><path class="cls-1" d="M722.11,121.28V147q0,14.79,11.9,14.8h131.7q17.26,0,17.26,20.16t-18.42,20.3H703.4q-21.75,0-21.75-23.49V23.8Q681.65,0,702.39,0H865.71Q883-.28,883,19.89t-17,20H734q-11.89.87-11.9,14.21V81.24h66q20.46.58,20.45,20.16,0,20.46-21.32,19.88Z"/><path class="cls-1" d="M1161.32,184.08q0,18.13-18.71,18.13h-11a24.45,24.45,0,0,1-17.55-7.1L1015.26,91.25q-14.81-12.47-14.8.29v90.37q.87,20.6-20,20.3-20.46,0-20.46-20.3V15.39Q960,.31,973.92,0h9.86q8.57,0,17.26,8L1107.8,123.16q13.34,7.69,13.34-6.24V20.47Q1120.27,0,1140.8.31t20.81,19.87Z"/><path class="cls-1" d="M1344.81,182.63q.87,19.59-20.31,19.58-20.46,0-20.16-19.87V55q0-14.51-12.77-14.5H1260.1q-21.48.57-21.47-20Q1238.63.59,1260.1,0h148q17.55-.58,17.55,19.87t-16.83,20h-50.33q-12.76.87-13.63,15.37Z"/><path class="cls-1" d="M0,105.39A99.35,99.35,0,0,1,8.2,65.28a103.54,103.54,0,0,1,22.64-33A108.4,108.4,0,0,1,64.56,10a104.1,104.1,0,0,1,41.17-8.2A105.15,105.15,0,0,1,147.05,10a105.25,105.25,0,0,1,56.36,55.3,97.83,97.83,0,0,1,8.36,40.11,97.79,97.79,0,0,1-8.36,40.1,105.25,105.25,0,0,1-56.36,55.3,105.15,105.15,0,0,1-41.32,8.2,104.1,104.1,0,0,1-41.17-8.2,108.4,108.4,0,0,1-33.72-22.33,103.54,103.54,0,0,1-22.64-33A99.31,99.31,0,0,1,0,105.39Zm41.32.3a58.46,58.46,0,0,0,5.17,24.46,64.31,64.31,0,0,0,14,19.9A65.24,65.24,0,0,0,81,163.42a65.53,65.53,0,0,0,49.53,0A65.31,65.31,0,0,0,151,150.05a64.34,64.34,0,0,0,14-19.9,58.61,58.61,0,0,0,5.16-24.46A59.64,59.64,0,0,0,165,81.08a63.72,63.72,0,0,0-14-20,67.51,67.51,0,0,0-20.5-13.52,63.6,63.6,0,0,0-49.53,0A67.44,67.44,0,0,0,60.46,61a63.69,63.69,0,0,0-14,20A59.48,59.48,0,0,0,41.32,105.69Z"/><path class="cls-1" d="M469.72,208.69q-10.34,0-15.35-5.17t-5-13.67V146.4a20.75,20.75,0,0,0-21-21H378.26a22,22,0,0,1-15.34-5.62,18.58,18.58,0,0,1-6.23-14.43A18.58,18.58,0,0,1,362.92,91a22.09,22.09,0,0,1,15.34-5.62H428.4a20.75,20.75,0,0,0,21-21,21.28,21.28,0,0,0-6.08-15.19A19.73,19.73,0,0,0,428.4,42.8H338.46q-6.07,0-9.26,2T326,52.52V189.85a18.48,18.48,0,0,1-5.32,13.37q-5.32,5.46-15.65,5.47t-15.34-5.17q-5-5.16-5-13.67V25.18q0-10.33,6.68-16.72a21.77,21.77,0,0,1,15.5-6.38H425.36A66.61,66.61,0,0,1,450.88,7a64,64,0,0,1,34.63,33.26,57.76,57.76,0,0,1,5.17,24.16A57.72,57.72,0,0,1,486.27,87,56.94,56.94,0,0,1,474,105.39a60.34,60.34,0,0,1,12.3,18.68,57,57,0,0,1,4.41,22.33v43.45a18.44,18.44,0,0,1-5.32,13.37Q480.05,208.68,469.72,208.69Z"/><path class="cls-1" d="M568.46,203.52q-4.86-5.16-4.86-13.67V20.92a18.45,18.45,0,0,1,5.32-13.37q5.31-5.46,15.64-5.47t15.35,5.17q5,5.17,5,13.67V189.85a18.17,18.17,0,0,1-5.47,13.37q-5.48,5.46-15.8,5.47T568.46,203.52Z"/><path class="cls-1" d="M680,184.68V25.18q0-10.33,6.69-16.72a21.76,21.76,0,0,1,15.49-6.38H866.82q8.49,0,13.67,5t5.16,15.34q0,10.33-5.47,15.34a19,19,0,0,1-13.36,5H733.74q-6.07,0-9.27,1.82c-2.12,1.22-3.19,3.55-3.19,7v23.7q0,9.42,8.51,9.72h62.89a19.15,19.15,0,0,1,12.76,5.62q4.86,5,4.86,14.74,0,10.32-5.46,15.34a19.09,19.09,0,0,1-13.37,5H733.74q-5.78,0-8.81,1.67c-2,1.12-3.24,3.3-3.65,6.53v24.31c0,3.85,1.07,6.43,3.19,7.75s5.22,2,9.27,2H866.82a19,19,0,0,1,13.36,5q5.48,5,5.47,15.34t-5.16,15.34q-5.18,5-13.67,5H702.14q-10.64,0-16.4-6.69T680,184.68Z"/><path class="cls-1" d="M963.43,203.52q-4.86-5.16-4.86-13.67V20.92a18.45,18.45,0,0,1,5.32-13.37q5.31-5.46,15.64-5.47a13.2,13.2,0,0,1,3,.46l3,.76a6.9,6.9,0,0,1,2.73.91,37.49,37.49,0,0,1,6.38,5q4.56,4.11,13.22,12.61t23.55,23.55q14.88,15,37.06,38t54.09,56.05V20.92A18.49,18.49,0,0,1,1128,7.55q5.31-5.46,15.65-5.47t15.34,5.17q5,5.17,5,13.67V189.85a18.21,18.21,0,0,1-5.47,13.37q-5.48,5.46-15.8,5.47-6.69,0-10.64-2.13a79.06,79.06,0,0,1-6.68-5.92q-4.26-4.11-12.61-12.46t-23.09-23.24q-14.75-14.9-36.61-37.38t-53.17-55V189.85a18.17,18.17,0,0,1-5.47,13.37q-5.46,5.46-15.8,5.47T963.43,203.52Z"/><path class="cls-1" d="M1333.18,208.69q-10.34,0-15.64-5.47a18.44,18.44,0,0,1-5.32-13.37V51c-.41-3.24-1.62-5.42-3.65-6.53s-5-1.67-8.81-1.67h-44a19,19,0,0,1-13.37-5q-5.47-5-5.47-15.34T1242,7.1q5.16-5,13.67-5h154q8.51,0,13.67,4.87t5.16,15.19q0,10.34-5.46,15.34a19.09,19.09,0,0,1-13.37,5H1366c-4.06,0-7.14.66-9.27,2s-3.19,3.9-3.19,7.75V189.85q0,8.51-5,13.67T1333.18,208.69Z"/><path class="cls-2" d="M397.39,405.31H387V382.24a78.32,78.32,0,0,1-6.57,7.73,61.18,61.18,0,0,1-44.88,18.57q-26.19,0-44.76-18.57t-18.57-44.76a61.18,61.18,0,0,1,18.57-44.88q18.57-18.57,44.76-18.57a61.18,61.18,0,0,1,44.88,18.57,79.49,79.49,0,0,1,6.57,7.73V292h10.38ZM387,355.48V334.94a52.45,52.45,0,0,0-88.48-26.76,52.33,52.33,0,0,0,74.06,73.94A50.39,50.39,0,0,0,387,355.48Z"/><path class="cls-2" d="M543.56,382.82a92.38,92.38,0,0,1-6.23,7.15,61.16,61.16,0,0,1-44.88,18.57q-26.19,0-44.76-18.57t-18.57-44.76q0-26.29,18.57-44.82a61.1,61.1,0,0,1,44.76-18.51q26.31,0,44.88,18.45a79.49,79.49,0,0,1,6.57,7.73V292h10.38v88q0,25.5-18.11,43.61-18.57,18.57-44.76,18.57a61.14,61.14,0,0,1-44.87-18.57,66.2,66.2,0,0,1-6.81-8l11-3.93c1.15,1.39,2.38,2.73,3.69,4a52.23,52.23,0,0,0,74,0Q542.28,401.86,543.56,382.82Zm.23-48.45a51.75,51.75,0,1,0,0,21.91Z"/><path class="cls-2" d="M610.93,384.09a49.9,49.9,0,0,0,34.84,13.38,50.48,50.48,0,0,0,37-15.35c1.3-1.3,2.54-2.65,3.69-4l11,3.92a65.43,65.43,0,0,1-6.81,8,61.14,61.14,0,0,1-44.87,18.57q-26.19,0-44.76-18.57a61.11,61.11,0,0,1-18.58-44.88q0-26.18,18.58-44.76t44.76-18.57q22.49,0,39.33,13.5,2.77,2.31,5.54,5.07c.69.7,1.35,1.39,2,2.08l-7.84,7.85Zm66.22-80.87a52.35,52.35,0,0,0-73.26,73.25Zm-31.73-50.65,27.46,27h-12l-21.46-16.5-20.3,16.5H607l26.42-27Z"/><path class="cls-2" d="M735.52,317.29v88H725.14V292h10.38v7.27q14.19-14.08,33-14.08,20.07,0,32.65,12.58t12.92,31.72v75.79H803.7V330.44a33.21,33.21,0,0,0-10.44-24.63,35.26,35.26,0,0,0-49.44-.17A38.93,38.93,0,0,0,735.52,317.29Z"/><path class="cls-2" d="M945.82,378.09l11,3.92a66.23,66.23,0,0,1-6.8,8,61.16,61.16,0,0,1-44.88,18.57q-26.19,0-44.76-18.57a61.14,61.14,0,0,1-18.57-44.88q0-26.18,18.57-44.76t44.76-18.57A61.16,61.16,0,0,1,950,300.33a72.15,72.15,0,0,1,6.8,7.85l-11,4c-1.15-1.39-2.38-2.77-3.69-4.16a52.33,52.33,0,0,0-74,74.06,52.21,52.21,0,0,0,74,0C943.44,380.82,944.67,379.47,945.82,378.09Z"/><path class="cls-2" d="M999.29,254.88a9.81,9.81,0,0,1,3.06,7.27,9.93,9.93,0,0,1-3.06,7.38,10.44,10.44,0,0,1-14.65,0,9.93,9.93,0,0,1-3.06-7.38,9.81,9.81,0,0,1,3.06-7.27,10.44,10.44,0,0,1,14.65,0ZM997.16,292V405.31H986.78V292Z"/><path class="cls-2" d="M1156.36,405.31H1146V382.24a78.32,78.32,0,0,1-6.57,7.73,61.16,61.16,0,0,1-44.88,18.57q-26.19,0-44.76-18.57t-18.57-44.76a61.18,61.18,0,0,1,18.57-44.88q18.57-18.57,44.76-18.57a61.16,61.16,0,0,1,44.88,18.57,79.49,79.49,0,0,1,6.57,7.73V292h10.39ZM1146,355.48V334.94a51.82,51.82,0,1,0,0,20.54Z"/></g></g></svg>