<svg xmlns="http://www.w3.org/2000/svg" xmlns:xlink="http://www.w3.org/1999/xlink" id="Camada_1" x="0px" y="0px" viewBox="0 0 296 96" style="enable-background:new 0 0 296 96;" xml:space="preserve"><style type="text/css">	.st0{fill:#FFFFFF;}	.st1{fill:url(#SVGID_1_);}	.st2{fill:url(#SVGID_2_);}	.st3{fill:url(#SVGID_3_);}	.st4{fill:url(#SVGID_4_);}	.st5{fill:url(#SVGID_5_);}	.st6{fill:url(#SVGID_6_);}	.st7{fill:#680E95;}	.st8{fill:url(#SVGID_7_);}	.st9{fill:#21B5EE;}</style><rect class="st0" width="296" height="96"></rect><rect x="-316" class="st0" width="296" height="96"></rect><g>	<g>		<linearGradient id="SVGID_1_" gradientUnits="userSpaceOnUse" x1="-308.429" y1="47.4161" x2="-268.3969" y2="47.4161">			<stop offset="1.663336e-05" style="stop-color:#680E95"></stop>			<stop offset="0.1005" style="stop-color:#661297"></stop>			<stop offset="0.1903" style="stop-color:#5F1C9D"></stop>			<stop offset="0.2759" style="stop-color:#542FA7"></stop>			<stop offset="0.359" style="stop-color:#4448B5"></stop>			<stop offset="0.4403" style="stop-color:#2F69C7"></stop>			<stop offset="0.5191" style="stop-color:#1791DD"></stop>			<stop offset="0.5804" style="stop-color:#00B6F1"></stop>		</linearGradient>		<path class="st1" d="M-273.89,32.95c3.66,3.64,5.49,8.46,5.49,14.44c0,6.06-1.83,10.91-5.48,14.57   c-3.65,3.65-8.49,5.48-14.51,5.48c-6.02,0-10.87-1.83-14.55-5.49c-3.66-3.64-5.49-8.49-5.49-14.55c0-5.98,1.83-10.79,5.49-14.44   c3.76-3.7,8.61-5.55,14.55-5.55C-282.4,27.4-277.57,29.25-273.89,32.95z M-297.1,38.79c-2.2,2.28-3.31,5.15-3.31,8.6   c0,5.1,2.06,8.66,6.18,10.67c1.76,0.9,3.71,1.35,5.84,1.35c4.68,0,8.12-1.8,10.32-5.41c1.13-1.78,1.7-3.99,1.7-6.61   c0-3.74-1.26-6.73-3.77-8.97c-2.21-2.03-4.96-3.05-8.25-3.05C-291.93,35.37-294.84,36.51-297.1,38.79z"></path>		<linearGradient id="SVGID_2_" gradientUnits="userSpaceOnUse" x1="-253.1268" y1="47.3301" x2="-213.0947" y2="47.3301">			<stop offset="1.663336e-05" style="stop-color:#680E95"></stop>			<stop offset="0.1005" style="stop-color:#661297"></stop>			<stop offset="0.1903" style="stop-color:#5F1C9D"></stop>			<stop offset="0.2759" style="stop-color:#542FA7"></stop>			<stop offset="0.359" style="stop-color:#4448B5"></stop>			<stop offset="0.4403" style="stop-color:#2F69C7"></stop>			<stop offset="0.5191" style="stop-color:#1791DD"></stop>			<stop offset="0.5804" style="stop-color:#00B6F1"></stop>		</linearGradient>		<path class="st2" d="M-234.03,51.33c-2.82,0.08-4.23-1.24-4.23-3.94c0-2.59,1.35-3.92,4.05-4h8.43c2.28,0,3.72-0.61,4.31-1.84   c0.11-0.27,0.21-0.58,0.29-0.93c0.08-0.35,0.11-0.77,0.11-1.25c0-1.02-0.17-1.76-0.5-2.23c-0.34-0.47-1.01-0.87-2.03-1.19   c-1.27-0.38-3.1-0.59-5.49-0.63h-13.26c-1.84,0-2.76,0.98-2.76,2.93v25.11c0.11,2.72-1.21,4.06-3.97,4.03   c-2.7,0-4.05-1.34-4.05-4.03v-31c0-3.34,1.5-5.02,4.49-5.06h19.44c6.88,0.04,11.62,1.87,14.21,5.49c1.27,1.84,1.9,4.04,1.9,6.59   c-0.23,4.75-2.16,7.56-5.78,8.43c3.58,0.82,5.47,3.36,5.67,7.62v7.94c0,2.68-1.36,4.03-4.08,4.03c-2.67,0-3.96-1.34-3.88-4.03v-8   c0.08-0.44,0.08-0.84,0-1.19c-0.08-0.35-0.17-0.67-0.29-0.93c-0.59-1.27-2.03-1.9-4.31-1.9H-234.03z"></path>		<linearGradient id="SVGID_3_" gradientUnits="userSpaceOnUse" x1="-197.8243" y1="47.3585" x2="-189.7936" y2="47.3585">			<stop offset="1.663336e-05" style="stop-color:#680E95"></stop>			<stop offset="0.1005" style="stop-color:#661297"></stop>			<stop offset="0.1903" style="stop-color:#5F1C9D"></stop>			<stop offset="0.2759" style="stop-color:#542FA7"></stop>			<stop offset="0.359" style="stop-color:#4448B5"></stop>			<stop offset="0.4403" style="stop-color:#2F69C7"></stop>			<stop offset="0.5191" style="stop-color:#1791DD"></stop>			<stop offset="0.5804" style="stop-color:#00B6F1"></stop>		</linearGradient>		<path class="st3" d="M-197.82,31.34c0-2.59,1.35-3.92,4.05-4c2.76-0.04,4.08,1.29,3.97,4v32.01c0.11,2.72-1.21,4.06-3.97,4.03   c-2.7,0-4.05-1.34-4.05-4.03V31.34z"></path>		<linearGradient id="SVGID_4_" gradientUnits="userSpaceOnUse" x1="-174.4728" y1="47.3293" x2="-134.5556" y2="47.3293">			<stop offset="1.663336e-05" style="stop-color:#680E95"></stop>			<stop offset="0.1005" style="stop-color:#661297"></stop>			<stop offset="0.1903" style="stop-color:#5F1C9D"></stop>			<stop offset="0.2759" style="stop-color:#542FA7"></stop>			<stop offset="0.359" style="stop-color:#4448B5"></stop>			<stop offset="0.4403" style="stop-color:#2F69C7"></stop>			<stop offset="0.5191" style="stop-color:#1791DD"></stop>			<stop offset="0.5804" style="stop-color:#00B6F1"></stop>		</linearGradient>		<path class="st4" d="M-166.45,51.33v5.09c0,1.96,0.79,2.93,2.36,2.93h26.11c2.28,0,3.42,1.33,3.42,4c0,2.68-1.22,4.03-3.65,4.03   h-31.95c-2.88,0-4.31-1.55-4.31-4.66V32c0-3.14,1.37-4.72,4.11-4.72h32.38c2.28-0.04,3.42,1.28,3.42,3.94   c0,2.68-1.12,4.01-3.36,3.97h-26.17c-1.57,0.11-2.36,1.05-2.36,2.82v5.38h13.09c2.7,0.08,4.05,1.41,4.05,4   c0,2.7-1.41,4.02-4.23,3.94H-166.45z"></path>		<linearGradient id="SVGID_5_" gradientUnits="userSpaceOnUse" x1="-119.2847" y1="47.3301" x2="-79.3099" y2="47.3301">			<stop offset="1.663336e-05" style="stop-color:#680E95"></stop>			<stop offset="0.1005" style="stop-color:#661297"></stop>			<stop offset="0.1903" style="stop-color:#5F1C9D"></stop>			<stop offset="0.2759" style="stop-color:#542FA7"></stop>			<stop offset="0.359" style="stop-color:#4448B5"></stop>			<stop offset="0.4403" style="stop-color:#2F69C7"></stop>			<stop offset="0.5191" style="stop-color:#1791DD"></stop>			<stop offset="0.5804" style="stop-color:#00B6F1"></stop>		</linearGradient>		<path class="st5" d="M-79.37,63.78c0,2.4-1.24,3.59-3.71,3.59h-2.19c-1.34,0-2.5-0.47-3.48-1.41l-19.58-20.59   c-1.96-1.65-2.93-1.63-2.93,0.06v17.92c0.11,2.72-1.21,4.06-3.97,4.03c-2.7,0-4.05-1.34-4.05-4.03V30.33   c0-1.99,0.92-3.01,2.76-3.05h1.96c1.13,0,2.27,0.53,3.42,1.58l21.17,22.83c1.76,1.02,2.65,0.6,2.65-1.24V31.34   c-0.11-2.7,1.18-4.04,3.9-4c2.71,0.04,4.09,1.35,4.13,3.94L-79.37,63.78z"></path>		<linearGradient id="SVGID_6_" gradientUnits="userSpaceOnUse" x1="-64.0393" y1="47.3281" x2="-26.9691" y2="47.3281">			<stop offset="1.663336e-05" style="stop-color:#680E95"></stop>			<stop offset="0.1005" style="stop-color:#661297"></stop>			<stop offset="0.1903" style="stop-color:#5F1C9D"></stop>			<stop offset="0.2759" style="stop-color:#542FA7"></stop>			<stop offset="0.359" style="stop-color:#4448B5"></stop>			<stop offset="0.4403" style="stop-color:#2F69C7"></stop>			<stop offset="0.5191" style="stop-color:#1791DD"></stop>			<stop offset="0.5804" style="stop-color:#00B6F1"></stop>		</linearGradient>		<path class="st6" d="M-42.99,63.49c0.12,2.59-1.23,3.88-4.03,3.88c-2.7,0-4.04-1.31-4-3.94V38.18c0-1.92-0.84-2.88-2.53-2.88   h-6.24c-2.84,0.08-4.26-1.25-4.26-3.97c0-2.63,1.42-3.98,4.26-4.05h29.33c2.32-0.08,3.48,1.24,3.48,3.94   c0,2.72-1.11,4.05-3.34,3.97h-9.98c-1.69,0.11-2.59,1.13-2.7,3.05V63.49z"></path>	</g>	<g>		<g>			<path class="st7" d="M-309.62,48.18c0-2.81,0.54-5.46,1.63-7.95c1.08-2.49,2.58-4.67,4.49-6.54c1.91-1.87,4.14-3.34,6.69-4.43    c2.55-1.08,5.27-1.63,8.16-1.63c2.89,0,5.62,0.54,8.19,1.63c2.57,1.08,4.8,2.56,6.69,4.43c1.89,1.87,3.38,4.05,4.49,6.54    c1.1,2.49,1.66,5.14,1.66,7.95c0,2.81-0.55,5.46-1.66,7.95c-1.1,2.49-2.6,4.67-4.49,6.54c-1.89,1.87-4.12,3.34-6.69,4.43    c-2.57,1.08-5.3,1.63-8.19,1.63c-2.89,0-5.61-0.54-8.16-1.63c-2.55-1.08-4.78-2.56-6.69-4.43c-1.91-1.87-3.4-4.05-4.49-6.54    C-309.08,53.64-309.62,50.99-309.62,48.18z M-301.43,48.24c0,1.73,0.34,3.34,1.02,4.85c0.68,1.51,1.61,2.82,2.77,3.95    c1.16,1.12,2.52,2.01,4.07,2.65c1.55,0.64,3.18,0.96,4.91,0.96c1.73,0,3.36-0.32,4.91-0.96c1.55-0.64,2.9-1.53,4.07-2.65    c1.16-1.12,2.09-2.44,2.77-3.95c0.68-1.51,1.02-3.12,1.02-4.85c0-1.73-0.34-3.35-1.02-4.88c-0.68-1.53-1.61-2.85-2.77-3.98    c-1.17-1.12-2.52-2.02-4.07-2.68c-1.55-0.66-3.18-0.99-4.91-0.99c-1.73,0-3.36,0.33-4.91,0.99c-1.55,0.66-2.9,1.56-4.07,2.68    c-1.17,1.12-2.09,2.45-2.77,3.98C-301.09,44.88-301.43,46.51-301.43,48.24z"></path>			<path class="st7" d="M-216.49,68.66c-1.37,0-2.38-0.34-3.04-1.02c-0.66-0.68-0.99-1.59-0.99-2.71v-8.61c0-1.16-0.4-2.15-1.2-2.95    c-0.8-0.8-1.79-1.2-2.95-1.2h-9.94c-1.2,0-2.22-0.37-3.04-1.11c-0.82-0.74-1.23-1.7-1.23-2.86c0-1.16,0.41-2.12,1.23-2.86    c0.82-0.74,1.84-1.11,3.04-1.11h9.94c1.16,0,2.15-0.4,2.95-1.2c0.8-0.8,1.2-1.79,1.2-2.95c0-1.16-0.4-2.17-1.2-3.01    c-0.8-0.84-1.79-1.26-2.95-1.26h-17.83c-0.8,0-1.42,0.13-1.84,0.39c-0.42,0.26-0.63,0.77-0.63,1.54v27.23    c0,1.04-0.35,1.93-1.05,2.65c-0.7,0.72-1.74,1.08-3.1,1.08c-1.37,0-2.38-0.34-3.04-1.02c-0.66-0.68-0.99-1.59-0.99-2.71V32.27    c0-1.36,0.44-2.47,1.33-3.31c0.88-0.84,1.91-1.26,3.07-1.26h23.49c1.81,0,3.49,0.32,5.06,0.96c1.57,0.64,2.93,1.53,4.1,2.65    c1.16,1.12,2.09,2.44,2.77,3.95c0.68,1.51,1.02,3.1,1.02,4.79c0,1.61-0.29,3.1-0.87,4.49c-0.58,1.39-1.4,2.6-2.44,3.64    c1.04,1.08,1.86,2.32,2.44,3.7c0.58,1.39,0.87,2.86,0.87,4.43v8.61c0,1.04-0.35,1.93-1.05,2.65    C-214.09,68.3-215.13,68.66-216.49,68.66z"></path>			<path class="st7" d="M-196.91,67.63c-0.64-0.68-0.96-1.59-0.96-2.71V31.43c0-1.04,0.35-1.93,1.05-2.65    c0.7-0.72,1.74-1.08,3.1-1.08c1.36,0,2.38,0.34,3.04,1.02c0.66,0.68,0.99,1.59,0.99,2.71v33.49c0,1.04-0.36,1.93-1.08,2.65    c-0.72,0.72-1.77,1.08-3.13,1.08C-195.27,68.66-196.27,68.32-196.91,67.63z"></path>			<linearGradient id="SVGID_7_" gradientUnits="userSpaceOnUse" x1="-177.8059" y1="39.5658" x2="-130.7441" y2="56.6949">				<stop offset="1.663336e-05" style="stop-color:#680E95"></stop>				<stop offset="0.1005" style="stop-color:#661297"></stop>				<stop offset="0.1903" style="stop-color:#5F1C9D"></stop>				<stop offset="0.2759" style="stop-color:#542FA7"></stop>				<stop offset="0.359" style="stop-color:#4448B5"></stop>				<stop offset="0.4403" style="stop-color:#2F69C7"></stop>				<stop offset="0.5191" style="stop-color:#1791DD"></stop>				<stop offset="0.5804" style="stop-color:#00B6F1"></stop>			</linearGradient>			<path class="st8" d="M-174.81,63.9V32.27c0-1.36,0.44-2.47,1.33-3.31c0.88-0.84,1.91-1.26,3.07-1.26h32.65    c1.12,0,2.03,0.33,2.71,0.99c0.68,0.66,1.02,1.68,1.02,3.04c0,1.37-0.36,2.38-1.08,3.04s-1.61,0.99-2.65,0.99h-26.39    c-0.8,0-1.42,0.12-1.84,0.36c-0.42,0.24-0.63,0.7-0.63,1.39v4.7c0,1.25,0.56,1.89,1.69,1.93h12.47c1.04,0.08,1.89,0.45,2.53,1.11    c0.64,0.66,0.96,1.64,0.96,2.92c0,1.37-0.36,2.38-1.08,3.04s-1.61,0.99-2.65,0.99h-11.45c-0.76,0-1.35,0.11-1.75,0.33    c-0.4,0.22-0.64,0.65-0.72,1.3v4.82c0,0.76,0.21,1.28,0.63,1.54c0.42,0.26,1.03,0.39,1.84,0.39h26.39c1.04,0,1.93,0.33,2.65,0.99    s1.08,1.68,1.08,3.04c0,1.37-0.34,2.38-1.02,3.04c-0.68,0.66-1.59,0.99-2.71,0.99h-32.65c-1.41,0-2.49-0.44-3.25-1.33    C-174.43,66.45-174.81,65.31-174.81,63.9z"></path>			<path class="st9" d="M-118.6,67.63c-0.64-0.68-0.96-1.59-0.96-2.71V31.43c0-1.04,0.35-1.93,1.05-2.65    c0.7-0.72,1.74-1.08,3.1-1.08c0.16,0,0.36,0.03,0.6,0.09s0.44,0.11,0.6,0.15c0.12,0,0.3,0.06,0.54,0.18    c0.24,0.12,0.66,0.45,1.27,0.99c0.6,0.54,1.48,1.38,2.62,2.5c1.14,1.12,2.7,2.68,4.67,4.67c1.97,1.99,4.42,4.5,7.35,7.53    c2.93,3.03,6.51,6.74,10.72,11.11V31.43c0-1.04,0.35-1.93,1.05-2.65c0.7-0.72,1.74-1.08,3.1-1.08c1.36,0,2.38,0.34,3.04,1.02    c0.66,0.68,0.99,1.59,0.99,2.71v33.49c0,1.04-0.36,1.93-1.08,2.65c-0.72,0.72-1.77,1.08-3.13,1.08c-0.88,0-1.59-0.14-2.11-0.42    c-0.32-0.24-0.76-0.63-1.33-1.17c-0.56-0.54-1.4-1.36-2.5-2.47c-1.11-1.1-2.63-2.64-4.58-4.61c-1.95-1.97-4.37-4.44-7.26-7.41    c-2.89-2.97-6.41-6.61-10.54-10.9v23.25c0,1.04-0.36,1.93-1.08,2.65c-0.72,0.72-1.77,1.08-3.13,1.08    C-116.96,68.66-117.96,68.32-118.6,67.63z"></path>			<path class="st9" d="M-45.29,68.66c-1.37,0-2.4-0.36-3.1-1.08c-0.7-0.72-1.05-1.61-1.05-2.65V37.39    c-0.08-0.64-0.32-1.07-0.72-1.3c-0.4-0.22-0.98-0.33-1.75-0.33h-8.73c-1.04,0-1.93-0.33-2.65-0.99    c-0.72-0.66-1.08-1.68-1.08-3.04c0-1.36,0.34-2.38,1.02-3.04c0.68-0.66,1.59-0.99,2.71-0.99h30.54c1.12,0,2.03,0.32,2.71,0.96    c0.68,0.64,1.02,1.65,1.02,3.01c0,1.37-0.36,2.38-1.08,3.04c-0.72,0.66-1.61,0.99-2.65,0.99h-8.67c-0.8,0-1.42,0.13-1.84,0.39    c-0.42,0.26-0.63,0.77-0.63,1.54v27.29c0,1.12-0.33,2.03-0.99,2.71C-42.91,68.32-43.93,68.66-45.29,68.66z"></path>		</g>	</g></g><g>	<path d="M42.04,33.62c3.65,3.64,5.48,8.44,5.48,14.41c0,6.05-1.82,10.89-5.47,14.54c-3.64,3.64-8.47,5.47-14.48,5.47  c-6.01,0-10.85-1.83-14.52-5.48c-3.65-3.63-5.48-8.48-5.48-14.52c0-5.97,1.83-10.77,5.48-14.41c3.75-3.69,8.59-5.54,14.52-5.54  C33.54,28.09,38.36,29.93,42.04,33.62z M18.88,39.45c-2.2,2.28-3.3,5.14-3.3,8.58c0,5.09,2.06,8.64,6.17,10.65  c1.76,0.9,3.7,1.35,5.83,1.35c4.67,0,8.1-1.8,10.3-5.39c1.13-1.78,1.69-3.98,1.69-6.6c0-3.73-1.25-6.71-3.76-8.95  c-2.2-2.03-4.95-3.04-8.24-3.04C24.04,36.04,21.14,37.17,18.88,39.45z"></path>	<path d="M81.81,51.96c-2.81,0.08-4.22-1.23-4.22-3.93c0-2.58,1.35-3.91,4.05-3.99h8.41c2.28,0,3.71-0.61,4.3-1.84  c0.11-0.27,0.21-0.58,0.29-0.93c0.08-0.35,0.11-0.77,0.11-1.25c0-1.01-0.17-1.75-0.5-2.22c-0.34-0.47-1.01-0.87-2.02-1.19  c-1.26-0.38-3.09-0.59-5.48-0.63H73.52c-1.84,0-2.75,0.98-2.75,2.93v25.05c0.11,2.72-1.21,4.06-3.96,4.02  c-2.7,0-4.05-1.34-4.05-4.02V33.02c0-3.33,1.49-5.01,4.48-5.05h19.4c6.87,0.04,11.59,1.87,14.18,5.48  c1.26,1.84,1.89,4.03,1.89,6.57c-0.23,4.74-2.15,7.55-5.77,8.41c3.58,0.82,5.46,3.36,5.65,7.6v7.92c0,2.68-1.36,4.02-4.08,4.02  c-2.66,0-3.95-1.34-3.87-4.02v-7.98c0.08-0.44,0.08-0.84,0-1.19c-0.08-0.35-0.17-0.66-0.29-0.93c-0.59-1.26-2.03-1.89-4.3-1.89  H81.81z"></path>	<path d="M117.94,32.02c0-2.58,1.35-3.91,4.05-3.99c2.75-0.04,4.07,1.29,3.96,3.99v31.94c0.11,2.72-1.21,4.06-3.96,4.02  c-2.7,0-4.05-1.34-4.05-4.02V32.02z"></path>	<path d="M149.25,51.96v5.08c0,1.95,0.78,2.93,2.35,2.93h26.06c2.28,0,3.41,1.33,3.41,3.99c0,2.68-1.22,4.02-3.64,4.02h-31.88  c-2.87,0-4.3-1.55-4.3-4.65V32.68c0-3.14,1.37-4.71,4.1-4.71h32.31c2.28-0.04,3.41,1.27,3.41,3.93c0,2.68-1.12,4-3.36,3.96H151.6  c-1.57,0.11-2.35,1.05-2.35,2.81v5.37h13.06c2.7,0.08,4.05,1.41,4.05,3.99c0,2.7-1.41,4.01-4.22,3.93H149.25z"></path>	<path d="M236.14,64.39c0,2.39-1.23,3.59-3.7,3.59h-2.18c-1.34,0-2.5-0.47-3.47-1.41l-19.54-20.55c-1.95-1.65-2.93-1.63-2.93,0.06  v17.88c0.11,2.72-1.21,4.06-3.96,4.02c-2.7,0-4.05-1.34-4.05-4.02V31.01c0-1.99,0.92-3,2.75-3.04h1.95c1.13,0,2.27,0.53,3.41,1.58  l21.12,22.79c1.76,1.01,2.64,0.6,2.64-1.23V32.02c-0.11-2.7,1.18-4.03,3.89-3.99c2.71,0.04,4.08,1.35,4.12,3.93L236.14,64.39z"></path>	<path d="M272.44,64.1c0.11,2.58-1.22,3.87-4.02,3.87c-2.7,0-4.03-1.31-3.99-3.93v-25.2c0-1.91-0.84-2.87-2.53-2.87h-6.23  c-2.83,0.08-4.25-1.24-4.25-3.96c0-2.62,1.42-3.97,4.25-4.05h29.27c2.31-0.08,3.47,1.23,3.47,3.93c0,2.72-1.11,4.04-3.33,3.96  h-9.96c-1.68,0.11-2.58,1.13-2.7,3.04V64.1z"></path></g></svg>