<?xml version="1.0" encoding="utf-8"?>
<!-- Generator: Adobe Illustrator 26.0.2, SVG Export Plug-In . SVG Version: 6.00 Build 0)  -->
<svg version="1.1" id="Camada_1" xmlns="http://www.w3.org/2000/svg" xmlns:xlink="http://www.w3.org/1999/xlink" x="0px" y="0px"
	 viewBox="0 0 1920 1080" style="enable-background:new 0 0 1920 1080;" xml:space="preserve">
<style type="text/css">
	.st0{stroke:url(#SVGID_1_);stroke-miterlimit:10;}
	
		.st1{fill:url(#SVGID_00000108278760639536995050000006363489201552949430_);stroke:url(#SVGID_00000034806810367811863690000004415360755366422409_);stroke-miterlimit:10;}
	.st2{fill:#FFFFFF;}
	.st3{fill:#FFFFFF;stroke:#FFFFFF;stroke-miterlimit:10;}
	.st4{fill:#FFFFFF;stroke:url(#SVGID_00000118356473150905083350000010116620385643171002_);stroke-miterlimit:10;}
	.st5{fill:#4E3D8F;}
	.st6{fill:url(#SVGID_00000134239039663876199880000007857220962999475366_);}
	.st7{fill:url(#SVGID_00000124133906203686564740000010213208615146039987_);}
	.st8{fill:url(#SVGID_00000164503064135871738810000005346653203933726862_);}
	.st9{fill:url(#SVGID_00000136376687811121951080000015402361473095548299_);}
	.st10{fill:url(#SVGID_00000094620387409498617710000012318128863743176611_);}
	.st11{fill:url(#SVGID_00000118394563500684430650000004872136186065368738_);}
	.st12{fill:url(#SVGID_00000149353542644189639440000014069165960932680627_);}
	.st13{stroke:url(#SVGID_00000014628864109705581350000005472763129290241726_);stroke-miterlimit:10;}
	
		.st14{fill:url(#SVGID_00000039813600219882268830000000595745786037333633_);stroke:url(#SVGID_00000168827116329087495230000016115587646075366550_);stroke-miterlimit:10;}
	
		.st15{fill:url(#SVGID_00000164504080961505180250000015297334371147611070_);stroke:url(#SVGID_00000052094330826328036090000013281607162779122319_);stroke-miterlimit:10;}
	
		.st16{fill:url(#SVGID_00000173874834046424356340000002182935646330965691_);stroke:url(#SVGID_00000172431260524850404500000011973864953359840687_);stroke-miterlimit:10;}
	.st17{stroke:#000000;stroke-miterlimit:10;}
	.st18{fill:#2EB4E8;}
	.st19{fill:#FFFFFF;stroke:url(#SVGID_00000129205781187892031390000008630781960949841072_);stroke-miterlimit:10;}
	.st20{fill:#FFFFFF;stroke:url(#SVGID_00000010299740176079407330000006460978268438170262_);stroke-miterlimit:10;}
	.st21{fill:#FFFFFF;stroke:url(#SVGID_00000039815212338639556850000013989740587263625398_);stroke-miterlimit:10;}
	.st22{fill:#FFFFFF;stroke:url(#SVGID_00000000931499038735750970000007535861085677917353_);stroke-miterlimit:10;}
	.st23{fill:#FFFFFF;stroke:url(#SVGID_00000032615621533098755290000004867168320717140906_);stroke-miterlimit:10;}
	.st24{fill:#FFFFFF;stroke:url(#SVGID_00000033346255592729341390000015048336930317808515_);stroke-miterlimit:10;}
	.st25{fill:#FFFFFF;stroke:url(#SVGID_00000075143597736223900090000017328764035971859596_);stroke-miterlimit:10;}
	.st26{fill:#FFFFFF;stroke:url(#SVGID_00000042720123713131818340000011535965124211714730_);stroke-miterlimit:10;}
	.st27{fill:#FFFFFF;stroke:url(#SVGID_00000043437485557254332370000011620943372465893788_);stroke-miterlimit:10;}
	.st28{fill:#FFFFFF;stroke:url(#SVGID_00000108268743289802533540000017200750544524048536_);stroke-miterlimit:10;}
	.st29{fill:#FFFFFF;stroke:url(#SVGID_00000138567623459118167000000001438031299846920099_);stroke-miterlimit:10;}
	.st30{fill:#FFFFFF;stroke:url(#SVGID_00000078755669846286138380000005521536676351597974_);stroke-miterlimit:10;}
	.st31{fill:#FFFFFF;stroke:url(#SVGID_00000058581549129288491240000012530707647491947171_);stroke-miterlimit:10;}
	.st32{fill:#FFFFFF;stroke:url(#SVGID_00000096040943399400182680000009413928868779451782_);stroke-miterlimit:10;}
	
		.st33{fill:url(#SVGID_00000020384136160677201640000004327595410819267218_);stroke:url(#SVGID_00000118369645795983859790000016723639632765733531_);stroke-miterlimit:10;}
	
		.st34{fill:url(#SVGID_00000016782415427009089100000001929139847337993617_);stroke:url(#SVGID_00000048478520598425595710000001764084722906220694_);stroke-miterlimit:10;}
	
		.st35{fill:url(#SVGID_00000044139735792247410160000011305094437232335236_);stroke:url(#SVGID_00000172429650739834176980000003645654467042772664_);stroke-miterlimit:10;}
	
		.st36{fill:url(#SVGID_00000099658858739265910530000001329117500600682666_);stroke:url(#SVGID_00000077284525727022123910000015940187101104496796_);stroke-miterlimit:10;}
	
		.st37{fill:url(#SVGID_00000012471767019654861750000008667109098236078259_);stroke:url(#SVGID_00000015341733602665922580000009121435744367246755_);stroke-miterlimit:10;}
	
		.st38{fill:url(#SVGID_00000031887262037817812840000017312930474921001099_);stroke:url(#SVGID_00000107547207522622721790000014037426992593236660_);stroke-miterlimit:10;}
	
		.st39{fill:url(#SVGID_00000067919950142142989390000003047172593382334131_);stroke:url(#SVGID_00000170997388198804672270000000669986733017036959_);stroke-miterlimit:10;}
	
		.st40{fill:url(#SVGID_00000181805745469513913850000016528163387839503012_);stroke:url(#SVGID_00000103251696812907718300000008876891216364928385_);stroke-miterlimit:10;}
	
		.st41{fill:url(#SVGID_00000044153712422781280720000006372970017549382539_);stroke:url(#SVGID_00000167390210954033177300000018412481452721263282_);stroke-miterlimit:10;}
	
		.st42{fill:url(#SVGID_00000010286341302565629770000016728487184965030296_);stroke:url(#SVGID_00000121271488800868936140000015845030896442965951_);stroke-miterlimit:10;}
	
		.st43{fill:url(#SVGID_00000171700975829144099920000007456520810694265783_);stroke:url(#SVGID_00000096042037151413734890000011367736689990953117_);stroke-miterlimit:10;}
	
		.st44{fill:url(#SVGID_00000117637054348389156130000005922162408653502861_);stroke:url(#SVGID_00000008871881835822930430000010129327932480141219_);stroke-miterlimit:10;}
	
		.st45{fill:url(#SVGID_00000078041685155664636850000014847982117958672816_);stroke:url(#SVGID_00000116949191866535016020000015925047865222064280_);stroke-miterlimit:10;}
	.st46{fill:url(#SVGID_00000132768972116610729320000002110126593796045744_);}
	.st47{fill:url(#SVGID_00000152238688569531254340000012326082902002271367_);}
	.st48{fill:url(#SVGID_00000093179419096436709780000017077538315337491073_);}
	.st49{fill:url(#SVGID_00000056420436630315125630000009990012132594491270_);}
	.st50{fill:url(#SVGID_00000034779279474878179160000013655989205654425003_);}
	.st51{fill:url(#SVGID_00000076567928423734239290000012695532554340732850_);}
	.st52{fill:url(#SVGID_00000169541146429737834950000010376366074550339759_);}
	.st53{fill:url(#SVGID_00000052783403439634855010000012814073978705920134_);}
	
		.st54{fill:url(#SVGID_00000183208391278294012490000002754533732361434028_);stroke:url(#SVGID_00000083768104427417870980000006843899258894917016_);stroke-miterlimit:10;}
	
		.st55{fill:url(#SVGID_00000183214952980229049820000011826674117336473254_);stroke:url(#SVGID_00000033337337790601732060000008708989656297168800_);stroke-miterlimit:10;}
	
		.st56{fill:url(#SVGID_00000029004729782403173960000014490407841023677617_);stroke:url(#SVGID_00000101814839693277390410000007502304921019932605_);stroke-miterlimit:10;}
	
		.st57{fill:url(#SVGID_00000075158948732324871250000018060913982346739889_);stroke:url(#SVGID_00000124853081412397160050000012484233342803347102_);stroke-miterlimit:10;}
	
		.st58{fill:url(#SVGID_00000144321555654245419240000010186082984577072319_);stroke:url(#SVGID_00000173132426461129519870000016300496893803674529_);stroke-miterlimit:10;}
	
		.st59{fill:url(#SVGID_00000007399617332994757290000012666502754860921783_);stroke:url(#SVGID_00000168827682509679299510000000244363240067397515_);stroke-miterlimit:10;}
	
		.st60{fill:url(#SVGID_00000070831733445607258780000001046848926672382870_);stroke:url(#SVGID_00000096030822127950106360000014757749678487814590_);stroke-miterlimit:10;}
	
		.st61{fill:url(#SVGID_00000109730014094583874950000001249754273310015623_);stroke:url(#SVGID_00000091708806566727816480000005790838240590543512_);stroke-miterlimit:10;}
	
		.st62{fill:url(#SVGID_00000151535934678504428180000004821820677850408088_);stroke:url(#SVGID_00000125601108054605160580000002002625772328113792_);stroke-miterlimit:10;}
	
		.st63{fill:url(#SVGID_00000125581928903142181460000013449452239624496009_);stroke:url(#SVGID_00000016796382576927780890000014103593384551384453_);stroke-miterlimit:10;}
	
		.st64{fill:url(#SVGID_00000016070909875148628450000009475380195244648838_);stroke:url(#SVGID_00000078016105199904957190000017459104333863365761_);stroke-miterlimit:10;}
	
		.st65{fill:url(#SVGID_00000135671989190781622660000002598126660008954514_);stroke:url(#SVGID_00000012457491634956730670000013279440754826647231_);stroke-miterlimit:10;}
	
		.st66{fill:url(#SVGID_00000061459817712093097250000014171409775665217208_);stroke:url(#SVGID_00000179605440975280413650000007555570878501517964_);stroke-miterlimit:10;}
	
		.st67{fill:url(#SVGID_00000176030939981477400200000002034544251315255193_);stroke:url(#SVGID_00000003803855709372353740000011237443608404167101_);stroke-miterlimit:10;}
	.st68{fill:url(#SVGID_00000083786133271413876810000006654776031382906295_);}
	
		.st69{fill:url(#SVGID_00000000933143674304884780000016400149658167049638_);stroke:url(#SVGID_00000064354027125902609840000003122136793066049184_);stroke-miterlimit:10;}
	.st70{fill:#FFFFFF;stroke:url(#SVGID_00000119817726111994114530000014407729271927244160_);stroke-miterlimit:10;}
	
		.st71{fill:url(#SVGID_00000174570700184243975100000001634642433378644872_);stroke:url(#SVGID_00000093885009993609280680000017051593132617441980_);stroke-miterlimit:10;}
	
		.st72{fill:url(#SVGID_00000003792771961588507120000011937578471326369450_);stroke:url(#SVGID_00000016041414262755423520000017590362233168471449_);stroke-miterlimit:10;}
	
		.st73{fill:url(#SVGID_00000178927045140092971090000008984423042645759405_);stroke:url(#SVGID_00000127014499363184248760000001497707624086960032_);stroke-miterlimit:10;}
	
		.st74{fill:url(#SVGID_00000022555882073711281630000011961896997157352595_);stroke:url(#SVGID_00000021832614241604332800000012850088774514099643_);stroke-miterlimit:10;}
	
		.st75{fill:url(#SVGID_00000182499894152273873250000007262306369750324615_);stroke:url(#SVGID_00000117639854705500157030000002492812750265593255_);stroke-miterlimit:10;}
	
		.st76{fill:url(#SVGID_00000153668513449638496740000014620366479783336624_);stroke:url(#SVGID_00000050621291833680301340000004718825133976309399_);stroke-miterlimit:10;}
	
		.st77{fill:url(#SVGID_00000085209370243792103940000008961613268187842723_);stroke:url(#SVGID_00000167388940695585031060000007586580021418963383_);stroke-miterlimit:10;}
	
		.st78{fill:url(#SVGID_00000111190728710734593000000006730196540965837246_);stroke:url(#SVGID_00000137816388646470185570000003099029076910215078_);stroke-miterlimit:10;}
	
		.st79{fill:url(#SVGID_00000105399025693241360920000001952171033977772722_);stroke:url(#SVGID_00000010298536073857090210000002536583710159210633_);stroke-miterlimit:10;}
	
		.st80{fill:url(#SVGID_00000063635710774814879170000002828684721097269663_);stroke:url(#SVGID_00000043453053202011702570000009645859526737362846_);stroke-miterlimit:10;}
	
		.st81{fill:url(#SVGID_00000009553313685119375830000007150722939724582309_);stroke:url(#SVGID_00000148632822774021673090000001984585847962504085_);stroke-miterlimit:10;}
	
		.st82{fill:url(#SVGID_00000057116128807633245300000012105044567690093741_);stroke:url(#SVGID_00000023967941120679182690000005756030175242280847_);stroke-miterlimit:10;}
	
		.st83{fill:url(#SVGID_00000154383669993035642140000014906132001752232851_);stroke:url(#SVGID_00000105418336718211999760000008496153717537638326_);stroke-miterlimit:10;}
	.st84{fill:url(#SVGID_00000075882065763154198080000013710822960448008866_);}
	.st85{fill:url(#SVGID_00000034087704781177565200000014548556396584559278_);}
	.st86{fill:url(#SVGID_00000090261688144685514330000003839440827860653983_);}
	.st87{fill:url(#SVGID_00000002370271016036561170000012130931178180979102_);}
	.st88{fill:url(#SVGID_00000068659997618536060500000001447232041064506262_);}
	.st89{fill:url(#SVGID_00000011749548114984920490000018303880331762513322_);}
	.st90{fill:url(#SVGID_00000151530154005012327450000002183984520478988969_);}
	.st91{stroke:url(#SVGID_00000122699775473094917450000014427808892102421685_);stroke-miterlimit:10;}
	
		.st92{fill:url(#SVGID_00000109720474906997296480000017759058317564097452_);stroke:url(#SVGID_00000072271984557163812220000000220717141191597231_);stroke-miterlimit:10;}
	
		.st93{fill:url(#SVGID_00000127758589788987253940000015858361877834325897_);stroke:url(#SVGID_00000064327378533655229820000017261326208567849397_);stroke-miterlimit:10;}
	
		.st94{fill:url(#SVGID_00000070815028995457764870000002646370045543837313_);stroke:url(#SVGID_00000139285580967596143730000002669427921697251513_);stroke-miterlimit:10;}
	
		.st95{fill:url(#SVGID_00000164501701073166825850000008101601698482752909_);stroke:url(#SVGID_00000087404990326488106370000011904609720998506154_);stroke-miterlimit:10;}
	
		.st96{fill:url(#SVGID_00000026134514548817698000000000533960062661367432_);stroke:url(#SVGID_00000172424852345630739380000014833432462060591511_);stroke-miterlimit:10;}
	
		.st97{fill:url(#SVGID_00000033344147929696992040000014170327892513179279_);stroke:url(#SVGID_00000142156553030524435470000015551332282195950216_);stroke-miterlimit:10;}
	
		.st98{fill:url(#SVGID_00000008838861139421309870000005116951718787738757_);stroke:url(#SVGID_00000026139360444720061810000011373651954538822552_);stroke-miterlimit:10;}
	
		.st99{fill:url(#SVGID_00000096037020708489976950000001862477048028141451_);stroke:url(#SVGID_00000141422635155263171670000004025304230776634799_);stroke-miterlimit:10;}
	
		.st100{fill:url(#SVGID_00000041279194594206634360000006235368291521147296_);stroke:url(#SVGID_00000003787389476894207250000012718142860805321115_);stroke-miterlimit:10;}
	
		.st101{fill:url(#SVGID_00000174586011272809876560000000496458342828418973_);stroke:url(#SVGID_00000057111060355912737600000010541259551179281070_);stroke-miterlimit:10;}
	
		.st102{fill:url(#SVGID_00000011008181191853160930000018352508937659601032_);stroke:url(#SVGID_00000163060582715984538920000000155234223373248898_);stroke-miterlimit:10;}
	
		.st103{fill:url(#SVGID_00000018200803670193292400000002878208721986366141_);stroke:url(#SVGID_00000149375307762833185720000012467735921857978545_);stroke-miterlimit:10;}
	
		.st104{fill:url(#SVGID_00000008113398904170246070000004509103999349355407_);stroke:url(#SVGID_00000109743172824225084350000007548054353393812408_);stroke-miterlimit:10;}
	.st105{fill:url(#SVGID_00000124129839325383749600000013369326251231363456_);}
	.st106{fill:url(#SVGID_00000010284110074481311860000000185624277051827336_);}
	.st107{fill:url(#SVGID_00000016065514723749050380000003703816689803181184_);}
	.st108{fill:url(#SVGID_00000087372653854332044250000005874547542719584689_);}
	.st109{fill:url(#SVGID_00000074404481298193274450000008035675550824951228_);}
	.st110{fill:url(#SVGID_00000021818800903343042250000005989640420299642260_);}
	.st111{fill:url(#SVGID_00000097470336891649577670000008490893450716941727_);}
	.st112{fill:url(#SVGID_00000014605442729149217030000015871120535125218432_);}
</style>
<g>
	<g>
		<g>
			<path d="M425.93,370.36c18.47,18.37,27.7,42.64,27.7,72.81c0,30.56-9.21,55.05-27.63,73.47c-18.42,18.42-42.81,27.63-73.18,27.63
				c-30.37,0-54.83-9.23-73.4-27.7c-18.47-18.37-27.7-42.84-27.7-73.4c0-30.17,9.23-54.44,27.7-72.81
				c18.95-18.66,43.42-27.99,73.4-27.99C383,342.37,407.37,351.7,425.93,370.36z M308.88,399.81
				c-11.12,11.51-16.68,25.96-16.68,43.37c0,25.72,10.39,43.66,31.18,53.81c8.9,4.55,18.71,6.82,29.45,6.82
				c23.59,0,40.95-9.09,52.07-27.27c5.7-8.99,8.56-20.11,8.56-33.36c0-18.86-6.33-33.94-19-45.25c-11.12-10.25-25-15.37-41.63-15.37
				C334.94,382.55,320.29,388.3,308.88,399.81z"/>
			<path d="M626.96,463.05c-14.21,0.39-21.32-6.24-21.32-19.87c0-13.05,6.82-19.77,20.45-20.16h42.5c11.51,0,18.76-3.09,21.76-9.28
				c0.58-1.35,1.06-2.92,1.45-4.71c0.39-1.79,0.58-3.89,0.58-6.31c0-5.12-0.85-8.87-2.54-11.24c-1.69-2.37-5.1-4.37-10.23-6.02
				c-6.38-1.93-15.62-3-27.7-3.19h-66.87c-9.28,0-13.92,4.93-13.92,14.8v126.63c0.58,13.73-6.09,20.5-20.02,20.31
				c-13.63,0-20.45-6.77-20.45-20.31V367.32c0-16.82,7.54-25.33,22.63-25.53h98.05c34.71,0.2,58.6,9.43,71.65,27.7
				c6.38,9.28,9.57,20.36,9.57,33.22c-1.16,23.98-10.88,38.15-29.15,42.5c18.08,4.16,27.61,16.97,28.57,38.44v40.03
				c0,13.54-6.87,20.31-20.6,20.31c-13.44,0-19.97-6.77-19.58-20.31v-40.32c0.39-2.22,0.39-4.23,0-6.02
				c-0.39-1.79-0.87-3.36-1.45-4.71c-3-6.38-10.25-9.57-21.76-9.57H626.96z"/>
			<path d="M809.58,362.24c0-13.05,6.82-19.77,20.45-20.16c13.92-0.19,20.6,6.53,20.02,20.16v161.44
				c0.58,13.73-6.09,20.5-20.02,20.31c-13.63,0-20.45-6.77-20.45-20.31V362.24z"/>
			<path d="M967.82,463.05v25.67c0,9.86,3.96,14.8,11.89,14.8h131.7c11.51,0,17.26,6.72,17.26,20.16c0,13.54-6.14,20.31-18.42,20.31
				H949.11c-14.5,0-21.76-7.83-21.76-23.5V365.58c0-15.86,6.91-23.79,20.74-23.79h163.32c11.51-0.19,17.26,6.43,17.26,19.87
				c0,13.54-5.66,20.21-16.97,20.02H979.72c-7.93,0.58-11.89,5.32-11.89,14.21v27.12h66c13.63,0.39,20.45,7.11,20.45,20.16
				c0,13.64-7.11,20.26-21.32,19.87H967.82z"/>
			<path d="M1407.03,525.85c0,12.09-6.24,18.13-18.71,18.13h-11.02c-6.77,0-12.62-2.37-17.55-7.11l-98.78-103.85
				c-9.86-8.32-14.79-8.22-14.79,0.29v90.36c0.58,13.73-6.09,20.5-20.02,20.31c-13.63,0-20.45-6.77-20.45-20.31V357.16
				c0-10.06,4.64-15.18,13.92-15.38h9.86c5.7,0,11.46,2.66,17.26,7.98l106.75,115.17c8.9,5.13,13.34,3.05,13.34-6.24v-96.46
				c-0.58-13.63,5.97-20.35,19.65-20.16c13.68,0.19,20.62,6.82,20.81,19.87L1407.03,525.85z"/>
			<path d="M1590.51,524.4c0.58,13.05-6.19,19.58-20.31,19.58c-13.63,0-20.36-6.62-20.16-19.87V396.76c0-9.67-4.26-14.5-12.77-14.5
				h-31.47c-14.31,0.39-21.47-6.29-21.47-20.02c0-13.25,7.15-20.06,21.47-20.45h147.95c11.7-0.39,17.55,6.24,17.55,19.87
				c0,13.73-5.61,20.4-16.83,20.02h-50.33c-8.51,0.58-13.05,5.71-13.64,15.37V524.4z"/>
		</g>
		<g>
			<g>
				<path d="M245.71,447.16c0-14.18,2.73-27.54,8.2-40.1c5.47-12.56,13.01-23.55,22.64-32.97c9.62-9.42,20.86-16.86,33.72-22.33
					c12.86-5.47,26.59-8.2,41.17-8.2s28.36,2.73,41.32,8.2c12.96,5.47,24.2,12.91,33.72,22.33c9.52,9.42,17.06,20.41,22.64,32.97
					c5.57,12.56,8.36,25.93,8.36,40.1c0,14.18-2.79,27.55-8.36,40.11c-5.57,12.56-13.12,23.55-22.64,32.97
					c-9.52,9.42-20.76,16.86-33.72,22.33c-12.96,5.47-26.74,8.2-41.32,8.2s-28.31-2.73-41.17-8.2
					c-12.86-5.47-24.11-12.91-33.72-22.33c-9.62-9.42-17.17-20.4-22.64-32.97C248.44,474.71,245.71,461.34,245.71,447.16z
					 M287.03,447.46c0,8.71,1.72,16.86,5.16,24.46c3.44,7.6,8.1,14.23,13.98,19.9c5.87,5.67,12.71,10.13,20.51,13.37
					c7.8,3.24,16.05,4.86,24.76,4.86c8.71,0,16.96-1.62,24.76-4.86c7.79-3.24,14.63-7.7,20.51-13.37
					c5.87-5.67,10.53-12.31,13.98-19.9c3.44-7.6,5.16-15.75,5.16-24.46c0-8.71-1.72-16.91-5.16-24.61
					c-3.45-7.7-8.1-14.38-13.98-20.05c-5.88-5.67-12.71-10.18-20.51-13.52c-7.8-3.34-16.06-5.01-24.76-5.01
					c-8.71,0-16.97,1.67-24.76,5.01c-7.8,3.34-14.63,7.85-20.51,13.52c-5.88,5.67-10.53,12.36-13.98,20.05
					C288.75,430.55,287.03,438.75,287.03,447.46z"/>
				<path d="M715.42,550.46c-6.89,0-12-1.72-15.34-5.16c-3.34-3.44-5.01-8-5.01-13.67v-43.45c0-5.87-2.03-10.83-6.08-14.89
					c-4.06-4.05-9.02-6.08-14.89-6.08h-50.13c-6.08,0-11.19-1.87-15.34-5.62c-4.15-3.75-6.23-8.55-6.23-14.43
					c0-5.87,2.07-10.68,6.23-14.43c4.15-3.75,9.27-5.62,15.34-5.62h50.13c5.87,0,10.83-2.02,14.89-6.08
					c4.05-4.05,6.08-9.01,6.08-14.89c0-5.87-2.03-10.94-6.08-15.19c-4.06-4.25-9.02-6.38-14.89-6.38h-89.93
					c-4.06,0-7.14,0.66-9.27,1.97c-2.13,1.32-3.19,3.9-3.19,7.75v137.33c0,5.27-1.78,9.72-5.32,13.37
					c-3.55,3.65-8.76,5.47-15.65,5.47c-6.89,0-12-1.72-15.34-5.16c-3.34-3.44-5.01-8-5.01-13.67V366.95
					c0-6.88,2.23-12.46,6.69-16.71c4.45-4.25,9.62-6.38,15.49-6.38h118.49c9.11,0,17.62,1.62,25.52,4.86
					c7.9,3.24,14.78,7.7,20.66,13.37c5.87,5.67,10.53,12.31,13.98,19.9c3.44,7.6,5.16,15.65,5.16,24.15c0,8.1-1.47,15.65-4.41,22.64
					c-2.94,6.99-7.04,13.12-12.3,18.38c5.27,5.47,9.37,11.7,12.3,18.69c2.93,6.99,4.41,14.43,4.41,22.33v43.45
					c0,5.27-1.77,9.72-5.32,13.37C727.52,548.64,722.31,550.46,715.42,550.46z"/>
				<path d="M814.17,545.29c-3.24-3.44-4.86-8-4.86-13.67V362.69c0-5.26,1.77-9.72,5.32-13.37c3.54-3.65,8.76-5.47,15.65-5.47
					c6.88,0,12,1.72,15.34,5.16c3.34,3.45,5.01,8,5.01,13.67v168.93c0,5.27-1.82,9.72-5.47,13.37s-8.92,5.47-15.8,5.47
					C822.47,550.46,817.41,548.74,814.17,545.29z"/>
				<path d="M925.67,526.46V366.95c0-6.88,2.23-12.46,6.68-16.71c4.45-4.25,9.62-6.38,15.49-6.38h164.68
					c5.67,0,10.23,1.67,13.67,5.01c3.44,3.34,5.17,8.46,5.17,15.34c0,6.89-1.82,12-5.47,15.34c-3.65,3.34-8.1,5.01-13.37,5.01
					H979.45c-4.06,0-7.14,0.61-9.27,1.82c-2.13,1.22-3.19,3.55-3.19,6.99v23.7c0,6.28,2.83,9.52,8.51,9.72h62.89
					c5.27,0.41,9.52,2.28,12.76,5.62c3.24,3.34,4.86,8.26,4.86,14.74c0,6.89-1.82,12-5.47,15.34c-3.65,3.34-8.1,5.01-13.37,5.01
					h-57.73c-3.85,0-6.79,0.56-8.81,1.67c-2.03,1.11-3.24,3.29-3.64,6.53v24.31c0,3.85,1.06,6.43,3.19,7.75
					c2.13,1.32,5.21,1.98,9.27,1.98h133.08c5.26,0,9.72,1.67,13.37,5.01c3.65,3.34,5.47,8.46,5.47,15.34c0,6.89-1.72,12-5.17,15.34
					c-3.45,3.34-8.01,5.01-13.67,5.01H947.85c-7.09,0-12.56-2.23-16.41-6.68C927.59,539.32,925.67,533.55,925.67,526.46z"/>
				<path d="M1209.14,545.29c-3.24-3.44-4.86-8-4.86-13.67V362.69c0-5.26,1.77-9.72,5.32-13.37c3.54-3.65,8.76-5.47,15.65-5.47
					c0.81,0,1.82,0.15,3.04,0.46s2.23,0.56,3.04,0.76c0.61,0,1.52,0.3,2.73,0.91c1.22,0.61,3.34,2.28,6.38,5.01
					c3.04,2.73,7.44,6.94,13.22,12.61c5.77,5.67,13.62,13.52,23.55,23.55c9.92,10.03,22.28,22.69,37.07,37.98
					c14.78,15.3,32.81,33.98,54.08,56.06V362.69c0-5.26,1.77-9.72,5.32-13.37c3.54-3.65,8.76-5.47,15.65-5.47
					c6.88,0,12,1.72,15.34,5.16c3.34,3.45,5.01,8,5.01,13.67v168.93c0,5.27-1.82,9.72-5.47,13.37c-3.65,3.65-8.92,5.47-15.8,5.47
					c-4.46,0-8-0.71-10.63-2.13c-1.62-1.22-3.85-3.19-6.68-5.92c-2.84-2.73-7.04-6.88-12.61-12.46
					c-5.57-5.57-13.27-13.32-23.09-23.24c-9.83-9.92-22.03-22.38-36.61-37.37c-14.58-14.99-32.31-33.32-53.17-54.99v117.28
					c0,5.27-1.82,9.72-5.47,13.37c-3.65,3.65-8.92,5.47-15.8,5.47C1217.44,550.46,1212.38,548.74,1209.14,545.29z"/>
				<path d="M1578.89,550.46c-6.89,0-12.1-1.82-15.65-5.47c-3.55-3.65-5.32-8.1-5.32-13.37V392.77c-0.41-3.24-1.62-5.42-3.64-6.53
					c-2.03-1.11-4.97-1.67-8.81-1.67h-44.05c-5.27,0-9.72-1.67-13.37-5.01c-3.65-3.34-5.47-8.45-5.47-15.34
					c0-6.88,1.72-12,5.16-15.34c3.44-3.34,8-5.01,13.67-5.01h154.04c5.67,0,10.23,1.62,13.67,4.86c3.44,3.24,5.16,8.31,5.16,15.19
					c0,6.89-1.82,12-5.47,15.34c-3.65,3.34-8.1,5.01-13.37,5.01h-43.75c-4.06,0-7.14,0.66-9.27,1.98c-2.13,1.32-3.19,3.9-3.19,7.75
					v137.63c0,5.67-1.67,10.23-5.01,13.67C1590.89,548.74,1585.78,550.46,1578.89,550.46z"/>
			</g>
		</g>
	</g>
	<g>
		<path d="M643.1,747.09h-10.38v-23.07c-2,2.69-4.19,5.27-6.57,7.73c-12.38,12.38-27.34,18.57-44.88,18.57
			c-17.46,0-32.38-6.19-44.76-18.57c-12.38-12.38-18.57-27.3-18.57-44.76c0-17.53,6.19-32.49,18.57-44.88
			c12.38-12.38,27.3-18.57,44.76-18.57c17.53,0,32.49,6.19,44.88,18.57c2.38,2.46,4.57,5.04,6.57,7.73V633.8h10.38V747.09z
			 M632.72,697.25v-20.53c-1.92-10.15-6.73-19.07-14.42-26.76c-10.23-10.23-22.57-15.34-37.03-15.34c-14.46,0-26.8,5.12-37.03,15.34
			c-10.23,10.23-15.34,22.57-15.34,37.03c0,14.46,5.11,26.78,15.34,36.97c10.23,10.19,22.57,15.29,37.03,15.29
			c14.46,0,26.8-5.11,37.03-15.34C625.99,716.21,630.8,707.33,632.72,697.25z"/>
		<path d="M789.26,724.59c-1.92,2.46-4,4.85-6.23,7.15c-12.38,12.38-27.34,18.57-44.88,18.57c-17.46,0-32.38-6.19-44.76-18.57
			c-12.38-12.38-18.57-27.3-18.57-44.76c0-17.53,6.19-32.47,18.57-44.82c12.38-12.34,27.3-18.52,44.76-18.52
			c17.53,0,32.49,6.15,44.88,18.46c2.38,2.46,4.57,5.04,6.57,7.73V633.8h10.38v88.02c0,17-6.04,31.53-18.11,43.61
			C769.5,777.81,754.58,784,737.12,784c-17.53,0-32.49-6.19-44.88-18.57c-2.54-2.54-4.81-5.19-6.81-7.96l10.96-3.92
			c1.15,1.39,2.38,2.73,3.69,4.04c10.23,10.23,22.57,15.34,37.03,15.34c14.38,0,26.69-5.12,36.92-15.34
			C783.34,748.28,788.42,737.28,789.26,724.59z M789.49,676.14c-2-9.92-6.77-18.65-14.3-26.19c-10.23-10.23-22.57-15.34-37.03-15.34
			c-14.46,0-26.8,5.12-37.03,15.34c-10.23,10.23-15.34,22.57-15.34,37.03c0,14.46,5.11,26.8,15.34,37.03
			c10.23,10.23,22.57,15.34,37.03,15.34c14.46,0,26.8-5.11,37.03-15.34c7.46-7.46,12.23-16.11,14.3-25.96V676.14z"/>
		<path d="M856.64,725.86c9.77,8.92,21.38,13.38,34.84,13.38c14.46,0,26.8-5.11,37.03-15.34c1.31-1.31,2.54-2.65,3.69-4.04
			l10.96,3.92c-2,2.77-4.27,5.42-6.81,7.96c-12.38,12.38-27.34,18.57-44.88,18.57c-17.46,0-32.38-6.19-44.76-18.57
			c-12.38-12.38-18.57-27.34-18.57-44.88c0-17.46,6.19-32.38,18.57-44.76c12.38-12.38,27.3-18.57,44.76-18.57
			c15,0,28.11,4.5,39.34,13.5c1.85,1.54,3.69,3.23,5.54,5.08c0.69,0.69,1.34,1.38,1.96,2.08l-7.84,7.84L856.64,725.86z
			 M922.85,644.99c-9-6.92-19.46-10.38-31.38-10.38c-14.38,0-26.69,5.1-36.91,15.29c-10.23,10.19-15.34,22.52-15.34,36.97
			c0,11.92,3.46,22.38,10.38,31.38L922.85,644.99z M891.13,594.35l27.46,26.99h-12l-21.46-16.5l-20.3,16.5h-12.11l26.42-26.99
			H891.13z"/>
		<path d="M981.23,659.06v88.02h-10.38V633.8h10.38v7.27c9.46-9.38,20.46-14.07,32.99-14.07c13.38,0,24.26,4.19,32.65,12.57
			c8.38,8.38,12.69,18.96,12.92,31.72v75.79h-10.38v-74.87c0-9.61-3.48-17.82-10.44-24.63c-6.96-6.81-15.21-10.21-24.74-10.21
			c-9.54,0-17.77,3.34-24.69,10.04C985.76,651.18,982.99,655.07,981.23,659.06z"/>
		<path d="M1191.53,719.86l10.96,3.92c-2,2.77-4.27,5.42-6.81,7.96c-12.38,12.38-27.34,18.57-44.88,18.57
			c-17.46,0-32.38-6.19-44.76-18.57c-12.38-12.38-18.57-27.34-18.57-44.88c0-17.46,6.19-32.38,18.57-44.76
			c12.38-12.38,27.3-18.57,44.76-18.57c17.53,0,32.49,6.19,44.88,18.57c2.54,2.54,4.81,5.15,6.81,7.84l-10.96,4.04
			c-1.15-1.38-2.38-2.77-3.69-4.15c-10.23-10.15-22.57-15.23-37.03-15.23c-14.38,0-26.69,5.1-36.92,15.29s-15.34,22.52-15.34,36.97
			c0,14.46,5.12,26.8,15.34,37.03c10.23,10.23,22.53,15.34,36.92,15.34c14.46,0,26.8-5.11,37.03-15.34
			C1189.15,722.59,1190.38,721.24,1191.53,719.86z"/>
		<path d="M1245,596.65c2.04,2,3.06,4.42,3.06,7.27c0,2.92-1.02,5.38-3.06,7.38c-2.04,2-4.48,3-7.33,3c-2.85,0-5.29-1-7.33-3
			c-2.04-2-3.06-4.46-3.06-7.38c0-2.84,1.02-5.27,3.06-7.27c2.04-2,4.48-3,7.33-3C1240.52,593.65,1242.96,594.65,1245,596.65z
			 M1242.87,633.8v113.29h-10.38V633.8H1242.87z"/>
		<path d="M1402.07,747.09h-10.38v-23.07c-2,2.69-4.19,5.27-6.58,7.73c-12.38,12.38-27.34,18.57-44.88,18.57
			c-17.46,0-32.38-6.19-44.76-18.57c-12.38-12.38-18.57-27.3-18.57-44.76c0-17.53,6.19-32.49,18.57-44.88
			c12.38-12.38,27.3-18.57,44.76-18.57c17.53,0,32.49,6.19,44.88,18.57c2.38,2.46,4.58,5.04,6.58,7.73V633.8h10.38V747.09z
			 M1391.68,697.25v-20.53c-1.92-10.15-6.73-19.07-14.42-26.76c-10.23-10.23-22.57-15.34-37.03-15.34
			c-14.46,0-26.8,5.12-37.03,15.34c-10.23,10.23-15.34,22.57-15.34,37.03c0,14.46,5.11,26.78,15.34,36.97
			c10.23,10.19,22.57,15.29,37.03,15.29c14.46,0,26.8-5.11,37.03-15.34C1384.95,716.21,1389.76,707.33,1391.68,697.25z"/>
	</g>
</g>
</svg>
